<svg width="16" height="16" viewBox="0 0 16 16" fill="none" xmlns="http://www.w3.org/2000/svg">
<path d="M10.4667 8.46659L6.46667 12.4666C6.33334 12.5999 6.2 12.6666 6 12.6666C5.8 12.6666 5.66667 12.5999 5.53334 12.4666C5.26667 12.1999 5.26667 11.7999 5.53334 11.5333L9.06667 7.99992L5.53334 4.46659C5.26667 4.19992 5.26667 3.79992 5.53334 3.53325C5.8 3.26659 6.2 3.26659 6.46667 3.53325L10.4667 7.53325C10.7333 7.79992 10.7333 8.19992 10.4667 8.46659Z" fill="white"/>
<mask id="mask0_1_157" style="mask-type:alpha" maskUnits="userSpaceOnUse" x="5" y="3" width="6" height="10">
<path d="M10.4667 8.46659L6.46667 12.4666C6.33334 12.5999 6.2 12.6666 6 12.6666C5.8 12.6666 5.66667 12.5999 5.53334 12.4666C5.26667 12.1999 5.26667 11.7999 5.53334 11.5333L9.06667 7.99992L5.53334 4.46659C5.26667 4.19992 5.26667 3.79992 5.53334 3.53325C5.8 3.26659 6.2 3.26659 6.46667 3.53325L10.4667 7.53325C10.7333 7.79992 10.7333 8.19992 10.4667 8.46659Z" fill="white"/>
</mask>
<g mask="url(#mask0_1_157)">
<path fill-rule="evenodd" clip-rule="evenodd" d="M0 0H16V16H0V0Z" fill="white"/>
</g>
</svg>
